<?xml version="1.0" encoding="UTF-8"?>
<svg id="All_Icons" data-name="All Icons" xmlns="http://www.w3.org/2000/svg" viewBox="0 0 178.16 176.39">
  <defs>
    <style>
      .cls-1 {
        fill: #fff;
      }

      .cls-2 {
        fill: #fff;
      }
    </style>
  </defs>
  <path class="cls-2" d="M88.96,88.96l.12,.05,.12-.05c-.08-.01-.16-.01-.24,0Z"/>
  <path class="cls-2" d="M178.16,133.36c-.02,1.96-1.16,3.72-2.94,4.53l-84,38.05c-.65,.3-1.35,.45-2.06,.45s-1.43-.16-2.1-.46L2.9,136.98c-1.77-.81-2.9-2.59-2.9-4.54s1.15-3.73,2.92-4.54l25.47-11.65,11.96,5.53-23.38,10.69,72.21,33.42,72.03-32.64-23.37-10.96,11.97-5.42,25.47,11.94c1.77,.82,2.89,2.6,2.88,4.55Z"/>
  <g>
    <path class="cls-1" d="M89.05,99.46l.1,.05h-.08s-.08,0-.12-.01c0,0,.1-.04,.1-.04Z"/>
    <path class="cls-1" d="M89.21,88.96l-.12,.05-.12-.05c.08-.01,.16-.01,.24,0Z"/>
  </g>
  <path class="cls-2" d="M178.16,88.67c-.02,1.95-1.16,3.72-2.94,4.52l-84,38.06c-.65,.3-1.35,.44-2.06,.44s-1.43-.15-2.1-.46L2.9,92.29c-1.77-.82-2.9-2.6-2.9-4.55s1.15-3.72,2.92-4.53l25.11-11.48,11.95,5.53-23.01,10.52,72.21,33.42,72.03-32.64-23-10.78,11.98-5.43,25.09,11.76c1.77,.83,2.89,2.61,2.88,4.56h0Z"/>
  <g>
    <path class="cls-1" d="M88.97,88.96c.08-.01,.16-.01,.24,0l-.12,.05s-.12-.05-.12-.05Z"/>
    <path class="cls-1" d="M89.05,99.46l-.1,.04s.08,.01,.12,.01h.08s-.1-.05-.1-.05Z"/>
  </g>
  <path class="cls-2" d="M175.28,39.86L91.28,.48c-1.33-.63-2.86-.63-4.2-.02L2.92,38.96c-1.77,.81-2.92,2.58-2.92,4.53s1.13,3.73,2.9,4.55l84.16,38.94c.67,.31,1.38,.46,2.1,.46s1.41-.15,2.06-.44l84-38.06c1.78-.8,2.92-2.57,2.94-4.52,0-1.95-1.11-3.73-2.88-4.56h0Zm-86.1,37.08L16.97,43.53,89.14,10.51l72.07,33.8s-72.03,32.63-72.03,32.63Z"/>
</svg>