<?xml version="1.0" encoding="UTF-8"?>
<svg id="All_Icons" data-name="All Icons" xmlns="http://www.w3.org/2000/svg" viewBox="0 0 178.16 172.59">
  <defs>
    <style>
      .cls-1 {
        fill: #fff;
      }

      .cls-2 {
        fill: #fff;
      }
    </style>
  </defs>
  <g>
    <path class="cls-2" d="M88.96,129.86l.12,.05,.12-.05c-.08-.01-.16-.01-.24,0Z"/>
    <g>
      <path class="cls-1" d="M89.05,140.36l.1,.05h-.08s-.08,0-.12-.01l.1-.04Z"/>
      <path class="cls-1" d="M89.21,129.86l-.12,.05-.12-.05c.08-.01,.16-.01,.24,0Z"/>
    </g>
    <path class="cls-2" d="M178.16,129.57c-.02,1.95-1.16,3.72-2.94,4.52l-84,38.06c-.65,.3-1.35,.44-2.06,.44s-1.43-.15-2.1-.46L2.9,133.19c-1.77-.82-2.9-2.6-2.9-4.55,0-1.95,1.15-3.72,2.92-4.53l25.11-11.48,11.95,5.53-23.01,10.52,72.21,33.42,72.03-32.64-23-10.78,11.98-5.43,25.09,11.76c1.77,.83,2.89,2.61,2.88,4.56Z"/>
    <g>
      <path class="cls-1" d="M88.97,129.86c.08-.01,.16-.01,.24,0l-.12,.05-.12-.05Z"/>
      <path class="cls-1" d="M89.05,140.36l-.1,.04s.08,.01,.12,.01h.08l-.1-.05Z"/>
    </g>
    <path class="cls-2" d="M175.28,80.76L91.28,41.38c-1.33-.63-2.86-.63-4.2-.02L2.92,79.86C1.15,80.67,0,82.44,0,84.39,0,86.34,1.13,88.12,2.9,88.94l84.16,38.94c.67,.31,1.38,.46,2.1,.46s1.41-.15,2.06-.44l84-38.06c1.78-.8,2.92-2.57,2.94-4.52,.01-1.95-1.11-3.73-2.88-4.56Zm-86.1,37.08L16.97,84.43,89.14,51.41l72.07,33.8-72.03,32.63Z"/>
  </g>
  <path class="cls-2" d="M174.29,24.57c0,2.77-2.24,5-5,5h-14.97v14.85c0,2.76-2.24,5-5,5s-5-2.24-5-5v-14.85h-14.45c-2.77,0-5-2.23-5-5s2.23-5,5-5h14.45V5c0-2.76,2.24-5,5-5s5,2.24,5,5v14.57h14.97c2.76,0,5,2.24,5,5Z"/>
</svg>