<?xml version="1.0" encoding="UTF-8"?>
<svg id="All_Icons" data-name="All Icons" xmlns="http://www.w3.org/2000/svg" viewBox="0 0 150.02 157.84">
  <defs>
    <style>
      .cls-1 {
        fill: #404040;
      }
    </style>
  </defs>
  <path class="cls-1" d="M149.99,152.29c-.17-1.5-.38-2.99-.65-4.45-2.63-14.59-10.08-27.51-20.74-37.42-2.91-2.71-6.06-5.2-9.42-7.42-.95-.64-1.92-1.26-2.91-1.85-.03-.02-.06-.04-.09-.06-11.48-6.88-25.12-10.94-39.74-11.18h-.02c-.46-.02-.94-.02-1.41-.02-7.54,0-14.83,1.01-21.71,2.91C24.75,100.64,3.21,123.62,.03,152.29c-.16,1.41,.3,2.83,1.25,3.89,.94,1.06,2.3,1.66,3.72,1.66H145.02c1.42,0,2.78-.6,3.73-1.66,.82-.92,1.27-2.11,1.27-3.34,0-.18-.01-.37-.03-.55Zm-139.12-4.45c1.99-9.29,6.31-17.75,12.36-24.88,4.7-5.54,10.45-10.28,16.96-14,5.2-2.97,10.89-5.29,16.94-6.83,5.69-1.46,11.69-2.24,17.88-2.24,12.22,0,23.69,3.02,33.51,8.35,3.35,1.8,6.5,3.88,9.43,6.2,10.68,8.45,18.34,20.06,21.2,33.4H10.87Z"/>
  <path class="cls-1" d="M75.01,79.1c-21.81,0-39.55-17.74-39.55-39.55S53.2,0,75.01,0s39.55,17.74,39.55,39.55-17.74,39.55-39.55,39.55Zm0-69.1c-16.3,0-29.55,13.26-29.55,29.55s13.26,29.55,29.55,29.55,29.55-13.26,29.55-29.55-13.26-29.55-29.55-29.55Z"/>
</svg>