<?xml version="1.0" encoding="UTF-8"?>
<svg id="Settings" xmlns="http://www.w3.org/2000/svg" viewBox="0 0 167.12 175.32">
  <defs>
    <style>
      .cls-1 {
        fill: #fff;
      }
    </style>
  </defs>
  <path class="cls-1" d="M83.56,117.1c-16.23,0-29.44-13.21-29.44-29.44s13.21-29.44,29.44-29.44,29.44,13.21,29.44,29.44-13.21,29.44-29.44,29.44Zm0-48.87c-10.72,0-19.44,8.72-19.44,19.44s8.72,19.44,19.44,19.44,19.44-8.72,19.44-19.44-8.72-19.44-19.44-19.44Z"/>
  <path class="cls-1" d="M68.87,175.32c-2.03,0-3.86-1.23-4.63-3.11l-9.94-24.39-10.12-6.6-22.12,5.77c-2.05,.54-4.22-.29-5.41-2.05L.85,121.45c-1.22-1.81-1.12-4.21,.25-5.92l16.14-20.16v-14.51L1.55,61.85c-1.34-1.62-1.52-3.9-.46-5.71L15.3,31.89c1.08-1.84,3.21-2.8,5.3-2.37l24.65,4.98,11.15-6.13L63.95,3.54c.64-2.11,2.58-3.54,4.78-3.54h28.59c2.09,0,3.96,1.3,4.69,3.25l9.46,25.41,10.44,6.27,23.91-4.91c2.03-.42,4.1,.46,5.22,2.21l15.29,23.94c1.22,1.92,1,4.42-.54,6.09l-16.97,18.32v14.47l15.12,18.74c1.3,1.61,1.47,3.87,.43,5.66l-14.21,24.36c-1.15,1.98-3.5,2.92-5.7,2.28l-21.56-6.22-10.92,7.21-9.87,24.92c-.75,1.9-2.58,3.15-4.62,3.16l-28.59,.13h-.02Zm-23.81-44.5c.96,0,1.91,.28,2.73,.81l13.28,8.66c.85,.56,1.51,1.36,1.9,2.3l9.26,22.71,21.83-.1,9.2-23.24c.38-.95,1.04-1.77,1.89-2.33l14.16-9.35c1.22-.81,2.74-1.04,4.14-.63l20.04,5.78,10.51-18.02-14.07-17.43c-.72-.89-1.11-2-1.11-3.14v-18.19c0-1.26,.48-2.47,1.33-3.4l15.68-16.93-11.36-17.79-22.45,4.61c-1.23,.25-2.51,.03-3.58-.61l-13.61-8.18c-.97-.58-1.71-1.48-2.11-2.54l-8.86-23.8h-21.41l-7.06,23.22c-.38,1.25-1.23,2.3-2.37,2.93l-14.54,7.99c-1.04,.57-2.24,.75-3.4,.52l-22.94-4.64-10.64,18.16,14.61,17.7c.74,.9,1.14,2.02,1.14,3.18v18.06c0,1.14-.39,2.24-1.1,3.12l-14.95,18.67,11.77,17.5,20.83-5.43c.42-.11,.84-.16,1.26-.16Z"/>
</svg>